<svg width="749" height="253" viewBox="0 0 749 253" fill="none" xmlns="http://www.w3.org/2000/svg">
<rect x="58" y="50" width="90" height="29" rx="14.5" stroke="#29354A" stroke-width="10"/>
<path d="M184.412 81.1839L176.103 74.589C172.073 71.3899 171.128 65.6547 173.919 61.332L205.477 12.4587C209.324 6.50193 217.976 6.32962 222.057 12.1286L260.444 66.6833C261.483 68.1588 262.04 69.9189 262.04 71.7231V71.7231C262.04 75.401 259.742 78.687 256.287 79.949L253.847 80.8404C253.225 81.0676 252.568 81.1839 251.906 81.1839V81.1839C247.541 81.1839 244.821 85.9179 247.019 89.6889L274.501 136.84C277.075 141.255 273.89 146.798 268.779 146.798V146.798C263.718 146.798 260.527 152.245 263.002 156.66L289.303 203.572C293.117 210.375 288.021 218.732 280.226 218.456L245.566 217.228C239.908 217.027 235.212 221.56 235.212 227.222V238C235.212 243.523 230.735 248 225.212 248H208.956" stroke="#29354A" stroke-width="10"/>
<path d="M53.5122 100.541C49.4199 105.817 43.9751 114.594 39.1472 127.352C36.5238 134.285 29.2793 138.57 22.0882 136.772L20.4145 136.354C14.0818 134.77 7.6244 138.658 5.94248 144.966C5.33417 147.247 5.43262 149.69 6.23944 151.908L7.79501 156.186C8.51844 158.176 10.4091 159.5 12.526 159.5C16.7471 159.5 19.0938 164.383 16.4569 167.679L14.4427 170.197C13.5088 171.364 13 172.814 13 174.309V218V238.111C13 240.601 13.9892 242.989 15.75 244.75C17.5108 246.511 19.8989 247.5 22.3891 247.5H32.5H38C41.6931 247.5 45.0856 245.465 46.8235 242.206C47.596 240.758 48 239.141 48 237.5C48 231.977 52.4772 227.5 58 227.5H149.322C153.839 227.5 157.5 231.161 157.5 235.678C157.5 238.382 158.837 240.911 161.071 242.435L164.677 244.893C167.168 246.592 170.112 247.5 173.127 247.5H181.938C184.263 247.5 186.539 246.828 188.491 245.565C191.926 243.342 194 239.529 194 235.438V173.343C194 172.453 193.862 171.569 193.591 170.721L192.731 168.034C191.38 163.813 194.529 159.5 198.96 159.5C202.572 159.5 205.5 156.572 205.5 152.96V150.072C205.5 147.77 204.658 145.548 203.133 143.825L199.302 139.493C196.094 135.868 191.015 134.538 186.442 136.129C178.806 138.785 170.292 133.172 167.316 125.654C163.623 116.324 157.772 107.12 152.652 100.733C150.132 97.5883 146.229 96 142.2 96H63.5541C59.6702 96 55.8925 97.4722 53.5122 100.541Z" stroke="#29354A" stroke-width="10"/>
<path d="M128 188.442C128 191.02 128.745 192.825 130.47 194.148C132.416 195.641 136.221 197 143.408 197C151.048 197 157.755 196.883 162.528 195.992C164.932 195.543 166.414 194.969 167.209 194.423C167.783 194.03 167.781 193.843 167.779 193.674C167.779 193.665 167.779 193.656 167.779 193.647C167.779 192.878 167.827 191.908 167.874 190.942C167.888 190.665 167.902 190.388 167.914 190.117C167.974 188.817 168.022 187.418 167.99 185.979C167.924 183.026 167.525 180.279 166.504 178.187C165.583 176.299 164.146 174.882 161.471 174.292C158.537 173.645 153.774 173.928 146.259 176.626C138.468 179.422 133.763 181.421 130.981 183.391C129.664 184.324 128.975 185.121 128.591 185.809C128.224 186.466 128 187.266 128 188.442Z" stroke="#29354A" stroke-width="8"/>
<path d="M81 188.442C81 191.02 80.255 192.825 78.5297 194.148C76.5837 195.641 72.7787 197 65.5918 197C57.9525 197 51.245 196.883 46.4722 195.992C44.0676 195.543 42.5863 194.969 41.7911 194.423C41.2174 194.03 41.2193 193.843 41.2209 193.674C41.221 193.665 41.2211 193.656 41.2211 193.647C41.2211 192.878 41.1732 191.908 41.1255 190.942C41.1118 190.665 41.0982 190.388 41.0857 190.117C41.0258 188.817 40.9783 187.418 41.0103 185.979C41.0758 183.026 41.4749 180.279 42.4956 178.187C43.4169 176.299 44.8539 174.882 47.5293 174.292C50.4634 173.645 55.2261 173.928 62.7407 176.626C70.5317 179.422 75.2373 181.421 78.019 183.391C79.3363 184.324 80.0252 185.121 80.4093 185.809C80.776 186.466 81 187.266 81 188.442Z" stroke="#29354A" stroke-width="8"/>
<path d="M364.525 124L360.625 111.25H341.125L337.225 124H325L343.9 70.225H357.775L376.75 124H364.525ZM354.025 89.275C353.775 88.425 353.45 87.35 353.05 86.05C352.65 84.75 352.25 83.425 351.85 82.075C351.45 80.725 351.125 79.55 350.875 78.55C350.625 79.55 350.275 80.8 349.825 82.3C349.425 83.75 349.025 85.15 348.625 86.5C348.275 87.8 348 88.725 347.8 89.275L343.975 101.725H357.925L354.025 89.275ZM400.182 70.45C404.932 70.45 408.907 70.9 412.107 71.8C415.357 72.65 417.782 74.075 419.382 76.075C421.032 78.025 421.857 80.675 421.857 84.025C421.857 86.025 421.532 87.85 420.882 89.5C420.232 91.15 419.282 92.5 418.032 93.55C416.832 94.6 415.357 95.275 413.607 95.575V95.95C415.407 96.3 417.032 96.925 418.482 97.825C419.932 98.725 421.082 100.025 421.932 101.725C422.782 103.425 423.207 105.675 423.207 108.475C423.207 111.725 422.407 114.525 420.807 116.875C419.257 119.175 417.007 120.95 414.057 122.2C411.107 123.4 407.607 124 403.557 124H383.532V70.45H400.182ZM401.457 91.675C404.757 91.675 407.032 91.15 408.282 90.1C409.582 89.05 410.232 87.525 410.232 85.525C410.232 83.475 409.482 82 407.982 81.1C406.482 80.2 404.107 79.75 400.857 79.75H394.857V91.675H401.457ZM394.857 100.675V114.625H402.282C405.682 114.625 408.057 113.975 409.407 112.675C410.757 111.325 411.432 109.55 411.432 107.35C411.432 106 411.132 104.825 410.532 103.825C409.982 102.825 409.007 102.05 407.607 101.5C406.207 100.95 404.307 100.675 401.907 100.675H394.857ZM454.548 124H443.223V79.9H428.673V70.45H469.098V79.9H454.548V124ZM524.491 97.15C524.491 101.3 523.966 105.075 522.916 108.475C521.916 111.825 520.366 114.725 518.266 117.175C516.216 119.625 513.566 121.5 510.316 122.8C507.116 124.1 503.341 124.75 498.991 124.75C494.641 124.75 490.841 124.1 487.591 122.8C484.391 121.45 481.741 119.575 479.641 117.175C477.591 114.725 476.041 111.8 474.991 108.4C473.991 105 473.491 101.225 473.491 97.075C473.491 91.525 474.391 86.7 476.191 82.6C478.041 78.5 480.841 75.325 484.591 73.075C488.391 70.775 493.216 69.625 499.066 69.625C504.866 69.625 509.641 70.775 513.391 73.075C517.141 75.325 519.916 78.525 521.716 82.675C523.566 86.775 524.491 91.6 524.491 97.15ZM485.416 97.15C485.416 100.9 485.891 104.125 486.841 106.825C487.791 109.525 489.266 111.6 491.266 113.05C493.266 114.5 495.841 115.225 498.991 115.225C502.241 115.225 504.841 114.5 506.791 113.05C508.791 111.6 510.241 109.525 511.141 106.825C512.091 104.125 512.566 100.9 512.566 97.15C512.566 91.5 511.516 87.075 509.416 83.875C507.316 80.675 503.866 79.075 499.066 79.075C495.866 79.075 493.266 79.8 491.266 81.25C489.266 82.7 487.791 84.775 486.841 87.475C485.891 90.175 485.416 93.4 485.416 97.15ZM572.59 79.15C570.44 79.15 568.515 79.575 566.815 80.425C565.165 81.275 563.765 82.5 562.615 84.1C561.465 85.65 560.59 87.55 559.99 89.8C559.44 92.05 559.165 94.575 559.165 97.375C559.165 101.175 559.615 104.425 560.515 107.125C561.465 109.775 562.94 111.8 564.94 113.2C566.94 114.6 569.49 115.3 572.59 115.3C574.79 115.3 576.965 115.05 579.115 114.55C581.315 114.05 583.69 113.35 586.24 112.45V121.975C583.89 122.925 581.565 123.625 579.265 124.075C576.965 124.525 574.39 124.75 571.54 124.75C566.04 124.75 561.49 123.625 557.89 121.375C554.34 119.075 551.715 115.875 550.015 111.775C548.315 107.625 547.465 102.8 547.465 97.3C547.465 93.25 548.015 89.55 549.115 86.2C550.215 82.8 551.815 79.875 553.915 77.425C556.065 74.975 558.69 73.075 561.79 71.725C564.94 70.375 568.54 69.7 572.59 69.7C575.24 69.7 577.89 70.05 580.54 70.75C583.24 71.4 585.815 72.3 588.265 73.45L584.59 82.675C582.59 81.725 580.565 80.9 578.515 80.2C576.515 79.5 574.54 79.15 572.59 79.15ZM331.75 212V158.45H374.125V212H362.8V167.9H343.075V212H331.75ZM420.409 212L416.509 199.25H397.009L393.109 212H380.884L399.784 158.225H413.659L432.634 212H420.409ZM409.909 177.275C409.659 176.425 409.334 175.35 408.934 174.05C408.534 172.75 408.134 171.425 407.734 170.075C407.334 168.725 407.009 167.55 406.759 166.55C406.509 167.55 406.159 168.8 405.709 170.3C405.309 171.75 404.909 173.15 404.509 174.5C404.159 175.8 403.884 176.725 403.684 177.275L399.859 189.725H413.809L409.909 177.275ZM481.791 212H470.466V167.9H457.341C457.041 170.2 456.716 172.7 456.366 175.4C456.066 178.1 455.716 180.85 455.316 183.65C454.966 186.4 454.591 189.025 454.191 191.525C453.791 193.975 453.391 196.15 452.991 198.05C452.341 201.15 451.466 203.8 450.366 206C449.316 208.2 447.841 209.875 445.941 211.025C444.091 212.175 441.666 212.75 438.666 212.75C437.666 212.75 436.716 212.675 435.816 212.525C434.916 212.375 434.066 212.175 433.266 211.925V202.625C433.916 202.825 434.541 203 435.141 203.15C435.791 203.3 436.491 203.375 437.241 203.375C438.241 203.375 439.066 203.05 439.716 202.4C440.366 201.75 440.941 200.65 441.441 199.1C441.941 197.5 442.441 195.3 442.941 192.5C443.191 191.3 443.491 189.6 443.841 187.4C444.191 185.15 444.591 182.525 445.041 179.525C445.541 176.475 446.041 173.175 446.541 169.625C447.041 166.025 447.516 162.3 447.966 158.45H481.791V212ZM528.075 212L524.175 199.25H504.675L500.775 212H488.55L507.45 158.225H521.325L540.3 212H528.075ZM517.575 177.275C517.325 176.425 517 175.35 516.6 174.05C516.2 172.75 515.8 171.425 515.4 170.075C515 168.725 514.675 167.55 514.425 166.55C514.175 167.55 513.825 168.8 513.375 170.3C512.975 171.75 512.575 173.15 512.175 174.5C511.825 175.8 511.55 176.725 511.35 177.275L507.525 189.725H521.475L517.575 177.275ZM562.434 212H551.109V167.9H536.559V158.45H576.984V167.9H562.434V212ZM628.891 212H615.991L596.566 184.85V212H585.241V158.45H596.566V184.4L615.766 158.45H627.841L608.341 184.175L628.891 212ZM682.767 185.15C682.767 189.3 682.242 193.075 681.192 196.475C680.192 199.825 678.642 202.725 676.542 205.175C674.492 207.625 671.842 209.5 668.592 210.8C665.392 212.1 661.617 212.75 657.267 212.75C652.917 212.75 649.117 212.1 645.867 210.8C642.667 209.45 640.017 207.575 637.917 205.175C635.867 202.725 634.317 199.8 633.267 196.4C632.267 193 631.767 189.225 631.767 185.075C631.767 179.525 632.667 174.7 634.467 170.6C636.317 166.5 639.117 163.325 642.867 161.075C646.667 158.775 651.492 157.625 657.342 157.625C663.142 157.625 667.917 158.775 671.667 161.075C675.417 163.325 678.192 166.525 679.992 170.675C681.842 174.775 682.767 179.6 682.767 185.15ZM643.692 185.15C643.692 188.9 644.167 192.125 645.117 194.825C646.067 197.525 647.542 199.6 649.542 201.05C651.542 202.5 654.117 203.225 657.267 203.225C660.517 203.225 663.117 202.5 665.067 201.05C667.067 199.6 668.517 197.525 669.417 194.825C670.367 192.125 670.842 188.9 670.842 185.15C670.842 179.5 669.792 175.075 667.692 171.875C665.592 168.675 662.142 167.075 657.342 167.075C654.142 167.075 651.542 167.8 649.542 169.25C647.542 170.7 646.067 172.775 645.117 175.475C644.167 178.175 643.692 181.4 643.692 185.15ZM736.984 140.825C736.734 143.425 736.009 145.725 734.809 147.725C733.609 149.675 731.734 151.2 729.184 152.3C726.634 153.4 723.209 153.95 718.909 153.95C714.509 153.95 711.059 153.425 708.559 152.375C706.109 151.275 704.359 149.75 703.309 147.8C702.259 145.85 701.634 143.525 701.434 140.825H711.409C711.659 143.575 712.359 145.4 713.509 146.3C714.659 147.2 716.534 147.65 719.134 147.65C721.284 147.65 723.034 147.175 724.384 146.225C725.784 145.225 726.609 143.425 726.859 140.825H736.984ZM693.859 158.45H704.059V184.325C704.059 185.575 704.034 186.975 703.984 188.525C703.934 190.075 703.884 191.6 703.834 193.1C703.784 194.55 703.734 195.825 703.684 196.925C703.634 197.975 703.584 198.7 703.534 199.1H703.759L728.509 158.45H742.084V212H731.959V186.275C731.959 184.925 731.984 183.45 732.034 181.85C732.084 180.2 732.134 178.625 732.184 177.125C732.284 175.625 732.359 174.325 732.409 173.225C732.509 172.075 732.584 171.325 732.634 170.975H732.334L707.509 212H693.859V158.45Z" fill="#29354A"/>
</svg>
