<svg xmlns="http://www.w3.org/2000/svg" width="114" height="69" viewBox="0 0 114 69"> <g fill-rule="evenodd"> <path d="M74.29 38.41c-.495.51-1.295.386-1.295.386L56.13 37.77 54.75 27.29c11.56 1.602 19.547 9.636 19.547 9.636s.651.807-.006 1.484zm-22.558-.908l-20.357-1.24 2.166-9.654c5.557-.109 12.17-.073 18.191.386v10.508zm-24.35-1.484c-7.756-.47-13.43-.817-13.647-.83-.703-.042-1.743-.784-1.068-1.708.88-1.202 1.953-2.652 3.082-3.937 1.954-2.223 5.12-2.408 5.12-2.408s4.07-.287 9.851-.458l-3.339 9.341zm80.182 5.944c-3.895-4.324-27.337-5.207-27.337-5.207S68.583 26.411 55.13 24.678c-13.452-1.738-47.335.685-47.587 1.372-.146.396 1.808 1.881 1.808 1.881S3.175 37.578 3.06 39.647c-.47 8.372 1.98 15.356 2.892 16.129.677.573 3.512 1.086 7.161 1.525-.05-.455-.08-.914-.08-1.382 0-6.352 4.886-11.151 10.888-10.775 6.928.433 10.888 4.423 10.888 10.775a12.12 12.12 0 0 1-.38 3.014l.525.025h47.804l.907-.055a12.19 12.19 0 0 1-.37-2.984c0-6.352 3.945-10.775 10.887-10.775 6.403 0 10.886 4.423 10.886 10.775 0 .288-.011.572-.032.854.764-.16 1.34-.325 1.66-.492 1.458-.76 3.87-9.618.868-14.319z"></path> <path d="M23.92 62.212a5.786 5.786 0 1 1 .002-11.572 5.786 5.786 0 0 1-.001 11.572m0-15.188a9.401 9.401 0 0 0-9.402 9.401c0 5.192 4.209 9.403 9.402 9.403s9.401-4.21 9.401-9.403a9.401 9.401 0 0 0-9.401-9.401M94.181 62.212a5.787 5.787 0 0 1 0-11.572 5.786 5.786 0 0 1 0 11.572m0-15.188a9.402 9.402 0 1 0 .002 18.804 9.402 9.402 0 0 0-.002-18.804"></path> </g> </svg>