<svg xmlns="http://www.w3.org/2000/svg" width="114" height="69" viewBox="0 0 114 69"> <g fill-rule="evenodd"> <path d="M23.308 63.364a5.056 5.056 0 1 1 .001-10.111 5.056 5.056 0 0 1-.001 10.111m0-13.096a8.041 8.041 0 1 0 0 16.082 8.042 8.042 0 0 0 0-16.082M91.115 63.364a5.056 5.056 0 1 1 .001-10.111 5.056 5.056 0 0 1-.001 10.111m0-13.096a8.04 8.04 0 1 0 0 16.082 8.042 8.042 0 1 0 0-16.082"></path> <path d="M80.868 43.007c-.176.448-.996.488-.996.488l-25.026-1.56-2.695-9.983c16.392.755 28.073 9.903 28.073 9.903s.82.704.644 1.152zM27.23 40.215c-2.517-2.4.45-4.085.45-4.085s5.867-4.021 21.145-4.221l1.14 9.722-22.735-1.416zm81.022 5.797c-3.46-1.68-9.876-4.645-24.164-5.972-1.956-1.007-11.9-7.399-24.446-9.925-8.58-1.728-16.455-1.435-26.926.79-9.697 2.061-18.699 6.988-18.699 6.988s-8.59.428-10.033 1.366c-.63.408-2.772 7.69-1.678 16.005.172 1.314.419 2.626 2.587 3.185 1.28.33 5.586 1.201 8.901 1.858a9.787 9.787 0 0 1-.207-1.998c0-5.369 4.352-9.72 9.721-9.72 5.368 0 9.72 4.351 9.72 9.72a9.7 9.7 0 0 1-.38 2.685h49.059c-.173-.728-.352-1.905-.352-2.685 0-5.369 4.353-9.72 9.721-9.72s9.72 4.351 9.72 9.72c0 .485-.037.961-.105 1.427 4.42-.273 8.3-.552 8.928-.724 1.562-.43 2.386-5.602 2.38-7.983-.003-2.082-1.631-3.989-3.747-5.017z"></path> </g> </svg>